<svg width="50" height="50" viewBox="0 0 50 50" fill="none" xmlns="http://www.w3.org/2000/svg">
<circle cx="25" cy="25" r="25" fill="black"/>
<path d="M11.7744 33V16.5361H17.4458C18.7261 16.5361 19.7031 16.6147 20.377 16.772C21.3203 16.9891 22.1252 17.3822 22.7915 17.9512C23.66 18.6849 24.3076 19.6245 24.7344 20.77C25.1686 21.908 25.3857 23.2108 25.3857 24.6782C25.3857 25.9285 25.2397 27.0366 24.9478 28.0024C24.6558 28.9683 24.2814 29.7694 23.8247 30.4058C23.368 31.0347 22.8664 31.5326 22.3198 31.8994C21.7808 32.2588 21.1257 32.5321 20.3545 32.7192C19.5908 32.9064 18.7111 33 17.7153 33H11.7744ZM13.9531 31.0571H17.4683C18.5539 31.0571 19.4036 30.9561 20.0176 30.7539C20.639 30.5518 21.1331 30.2673 21.5 29.9004C22.0166 29.3838 22.4172 28.6912 22.7017 27.8228C22.9937 26.9468 23.1396 25.8874 23.1396 24.6445C23.1396 22.9225 22.8551 21.6011 22.2861 20.6802C21.7246 19.7518 21.0396 19.1304 20.231 18.8159C19.647 18.5913 18.7074 18.479 17.4121 18.479H13.9531V31.0571ZM28.3057 33V16.5361H30.4844V31.0571H38.5928V33H28.3057Z" fill="white"/>
<style xmlns="" id="autoconsent-prehide"/></svg>